<svg width="24" height="24" viewBox="0 0 24 24" fill="none" xmlns="http://www.w3.org/2000/svg">
<path d="M22.412 17.6V6.8C22.412 5.804 21.608 5 20.612 5H3.8C2.804 5 2 5.804 2 6.8V17.6C2 18.596 2.804 19.4 3.8 19.4H20.612C21.608 19.4 22.412 18.596 22.412 17.6ZM20.84 6.668C21.236 7.064 21.02 7.472 20.804 7.676L15.932 12.14L20.612 17.012C20.756 17.18 20.852 17.444 20.684 17.624C20.528 17.816 20.168 17.804 20.012 17.684L14.768 13.208L12.2 15.548L9.644 13.208L4.4 17.684C4.244 17.804 3.884 17.816 3.728 17.624C3.56 17.444 3.656 17.18 3.8 17.012L8.48 12.14L3.608 7.676C3.392 7.472 3.176 7.064 3.572 6.668C3.968 6.272 4.376 6.464 4.712 6.752L12.2 12.8L19.7 6.752C20.036 6.464 20.444 6.272 20.84 6.668V6.668Z" fill="black"/>
</svg>
