<svg width="24" height="24" viewBox="0 0 24 24" fill="none" xmlns="http://www.w3.org/2000/svg">
<path d="M0.17963 11.2389C0.27474 10.9936 0.417355 10.7695 0.599287 10.5795L10.5911 0.587699C10.7774 0.401376 10.9986 0.253576 11.242 0.152739C11.4855 0.051901 11.7464 0 12.0099 0C12.542 0 13.0524 0.211402 13.4287 0.587699C13.615 0.774023 13.7628 0.995221 13.8637 1.23866C13.9645 1.48211 14.0164 1.74303 14.0164 2.00653C14.0164 2.53869 13.805 3.04906 13.4287 3.42536L6.83415 9.99994H22.0016C22.5316 9.99994 23.0399 10.2105 23.4147 10.5852C23.7895 10.96 24 11.4683 24 11.9983C24 12.5283 23.7895 13.0366 23.4147 13.4113C23.0399 13.7861 22.5316 13.9966 22.0016 13.9966H6.83415L13.4287 20.5712C13.616 20.757 13.7647 20.978 13.8661 21.2215C13.9676 21.4651 14.0198 21.7263 14.0198 21.9901C14.0198 22.2539 13.9676 22.5151 13.8661 22.7586C13.7647 23.0021 13.616 23.2231 13.4287 23.4089C13.2429 23.5962 13.0219 23.7449 12.7784 23.8463C12.5349 23.9478 12.2737 24 12.0099 24C11.7461 24 11.4849 23.9478 11.2414 23.8463C10.9978 23.7449 10.7768 23.5962 10.5911 23.4089L0.599287 13.4171C0.417355 13.2271 0.27474 13.003 0.17963 12.7577C-0.0202408 12.2711 -0.0202408 11.7254 0.17963 11.2389Z" fill="#2F2F2F"/>
</svg>
