<svg width="216" height="50" viewBox="0 0 216 50" fill="none" xmlns="http://www.w3.org/2000/svg">
<path d="M66.7884 38H60.8565L69.8949 11.8182H77.0284L86.054 38H80.1222L73.5639 17.8011H73.3594L66.7884 38ZM66.4176 27.7088H80.429V32.0298H66.4176V27.7088ZM89.103 38V18.3636H94.3828V21.7898H94.5874C94.9453 20.571 95.5462 19.6506 96.3899 19.0284C97.2337 18.3977 98.2053 18.0824 99.3047 18.0824C99.5774 18.0824 99.8714 18.0994 100.187 18.1335C100.502 18.1676 100.779 18.2145 101.018 18.2741V23.1065C100.762 23.0298 100.408 22.9616 99.9567 22.902C99.505 22.8423 99.0916 22.8125 98.7166 22.8125C97.9155 22.8125 97.1996 22.9872 96.5689 23.3366C95.9467 23.6776 95.4524 24.1548 95.0859 24.7685C94.728 25.3821 94.549 26.0895 94.549 26.8906V38H89.103ZM115.262 18.3636V22.4545H103.437V18.3636H115.262ZM106.122 13.6591H111.568V31.9659C111.568 32.4687 111.645 32.8608 111.798 33.142C111.951 33.4148 112.164 33.6065 112.437 33.7173C112.718 33.8281 113.042 33.8835 113.409 33.8835C113.664 33.8835 113.92 33.8622 114.176 33.8196C114.431 33.7685 114.627 33.7301 114.764 33.7045L115.62 37.7571C115.348 37.8423 114.964 37.9403 114.47 38.0511C113.975 38.1705 113.375 38.2429 112.667 38.2685C111.355 38.3196 110.204 38.1449 109.216 37.7443C108.235 37.3437 107.473 36.7216 106.927 35.8778C106.382 35.0341 106.113 33.9687 106.122 32.6818V13.6591ZM118.81 45.3636V18.3636H124.179V21.6619H124.422C124.661 21.1335 125.006 20.5966 125.458 20.0511C125.918 19.4972 126.515 19.0369 127.248 18.6705C127.989 18.2955 128.909 18.108 130.009 18.108C131.441 18.108 132.762 18.483 133.972 19.233C135.182 19.9744 136.15 21.0952 136.874 22.5952C137.598 24.0866 137.961 25.9574 137.961 28.2074C137.961 30.3977 137.607 32.2472 136.9 33.7557C136.201 35.2557 135.246 36.3935 134.036 37.169C132.834 37.9361 131.488 38.3196 129.996 38.3196C128.939 38.3196 128.04 38.1449 127.299 37.7955C126.566 37.446 125.965 37.0071 125.496 36.4787C125.027 35.9418 124.669 35.4006 124.422 34.8551H124.256V45.3636H118.81ZM124.141 28.1818C124.141 29.3494 124.303 30.3679 124.627 31.2372C124.951 32.1065 125.419 32.7841 126.033 33.2699C126.647 33.7472 127.392 33.9858 128.27 33.9858C129.157 33.9858 129.907 33.7429 130.52 33.2571C131.134 32.7628 131.598 32.081 131.914 31.2116C132.238 30.3338 132.4 29.3239 132.4 28.1818C132.4 27.0483 132.242 26.0511 131.926 25.1903C131.611 24.3295 131.147 23.6562 130.533 23.1705C129.919 22.6847 129.165 22.4418 128.27 22.4418C127.384 22.4418 126.634 22.6761 126.02 23.1449C125.415 23.6136 124.951 24.2784 124.627 25.1392C124.303 26 124.141 27.0142 124.141 28.1818ZM141.591 38V18.3636H146.871V21.7898H147.076C147.434 20.571 148.034 19.6506 148.878 19.0284C149.722 18.3977 150.694 18.0824 151.793 18.0824C152.066 18.0824 152.36 18.0994 152.675 18.1335C152.99 18.1676 153.267 18.2145 153.506 18.2741V23.1065C153.25 23.0298 152.897 22.9616 152.445 22.902C151.993 22.8423 151.58 22.8125 151.205 22.8125C150.404 22.8125 149.688 22.9872 149.057 23.3366C148.435 23.6776 147.941 24.1548 147.574 24.7685C147.216 25.3821 147.037 26.0895 147.037 26.8906V38H141.591ZM164.357 38.3835C162.337 38.3835 160.598 37.9744 159.141 37.1562C157.692 36.3295 156.575 35.1619 155.791 33.6534C155.007 32.1364 154.615 30.3423 154.615 28.2713C154.615 26.2514 155.007 24.4787 155.791 22.9531C156.575 21.4276 157.679 20.2386 159.102 19.3864C160.534 18.5341 162.213 18.108 164.139 18.108C165.435 18.108 166.641 18.3168 167.757 18.7344C168.882 19.1435 169.862 19.7614 170.697 20.5881C171.541 21.4148 172.197 22.4545 172.666 23.7074C173.135 24.9517 173.369 26.4091 173.369 28.0795V29.5753H156.788V26.2003H168.243C168.243 25.4162 168.072 24.7216 167.732 24.1165C167.391 23.5114 166.918 23.0384 166.312 22.6974C165.716 22.348 165.021 22.1733 164.229 22.1733C163.402 22.1733 162.669 22.3651 162.03 22.7486C161.399 23.1236 160.905 23.6307 160.547 24.2699C160.189 24.9006 160.006 25.6037 159.997 26.3793V29.5881C159.997 30.5597 160.176 31.3991 160.534 32.1065C160.901 32.8139 161.416 33.3594 162.081 33.7429C162.746 34.1264 163.534 34.3182 164.446 34.3182C165.051 34.3182 165.605 34.233 166.108 34.0625C166.611 33.892 167.041 33.6364 167.399 33.2955C167.757 32.9545 168.03 32.5369 168.217 32.0426L173.254 32.375C172.999 33.5852 172.474 34.642 171.682 35.5455C170.898 36.4403 169.884 37.1392 168.639 37.642C167.403 38.1364 165.976 38.3835 164.357 38.3835ZM193.261 23.9631L188.276 24.2699C188.19 23.8437 188.007 23.4602 187.726 23.1193C187.445 22.7699 187.074 22.4929 186.614 22.2884C186.162 22.0753 185.621 21.9688 184.99 21.9688C184.146 21.9688 183.435 22.1477 182.855 22.5057C182.276 22.8551 181.986 23.3239 181.986 23.9119C181.986 24.3807 182.173 24.777 182.548 25.1009C182.923 25.4247 183.567 25.6847 184.479 25.8807L188.033 26.5966C189.942 26.9886 191.365 27.6193 192.303 28.4886C193.24 29.358 193.709 30.5 193.709 31.9148C193.709 33.2017 193.33 34.331 192.571 35.3026C191.821 36.2741 190.79 37.0327 189.477 37.5781C188.173 38.1151 186.669 38.3835 184.964 38.3835C182.365 38.3835 180.294 37.8423 178.751 36.7599C177.217 35.669 176.318 34.1861 176.054 32.3111L181.411 32.0298C181.572 32.8224 181.964 33.4276 182.587 33.8452C183.209 34.2543 184.006 34.4588 184.977 34.4588C185.932 34.4588 186.699 34.2756 187.278 33.9091C187.866 33.5341 188.165 33.0526 188.173 32.4645C188.165 31.9702 187.956 31.5653 187.547 31.25C187.138 30.9261 186.507 30.679 185.655 30.5085L182.254 29.831C180.337 29.4474 178.909 28.7827 177.972 27.8366C177.043 26.8906 176.578 25.6847 176.578 24.2188C176.578 22.9574 176.919 21.8707 177.601 20.9588C178.291 20.0469 179.259 19.3438 180.503 18.8494C181.756 18.3551 183.222 18.108 184.901 18.108C187.381 18.108 189.332 18.6321 190.756 19.6804C192.188 20.7287 193.023 22.1562 193.261 23.9631ZM213.476 23.9631L208.49 24.2699C208.405 23.8437 208.222 23.4602 207.941 23.1193C207.659 22.7699 207.289 22.4929 206.828 22.2884C206.377 22.0753 205.836 21.9688 205.205 21.9688C204.361 21.9688 203.65 22.1477 203.07 22.5057C202.49 22.8551 202.201 23.3239 202.201 23.9119C202.201 24.3807 202.388 24.777 202.763 25.1009C203.138 25.4247 203.782 25.6847 204.694 25.8807L208.248 26.5966C210.157 26.9886 211.58 27.6193 212.517 28.4886C213.455 29.358 213.924 30.5 213.924 31.9148C213.924 33.2017 213.544 34.331 212.786 35.3026C212.036 36.2741 211.005 37.0327 209.692 37.5781C208.388 38.1151 206.884 38.3835 205.179 38.3835C202.58 38.3835 200.509 37.8423 198.966 36.7599C197.432 35.669 196.533 34.1861 196.269 32.3111L201.625 32.0298C201.787 32.8224 202.179 33.4276 202.801 33.8452C203.424 34.2543 204.221 34.4588 205.192 34.4588C206.147 34.4588 206.914 34.2756 207.493 33.9091C208.081 33.5341 208.38 33.0526 208.388 32.4645C208.38 31.9702 208.171 31.5653 207.762 31.25C207.353 30.9261 206.722 30.679 205.87 30.5085L202.469 29.831C200.551 29.4474 199.124 28.7827 198.186 27.8366C197.257 26.8906 196.793 25.6847 196.793 24.2188C196.793 22.9574 197.134 21.8707 197.816 20.9588C198.506 20.0469 199.473 19.3438 200.718 18.8494C201.971 18.3551 203.436 18.108 205.115 18.108C207.596 18.108 209.547 18.6321 210.971 19.6804C212.402 20.7287 213.238 22.1562 213.476 23.9631Z" fill="#2F2F2F"/>
<path d="M-1.11014e-06 23.5094V26.4863H6.64775C15.9625 26.4863 23.5137 34.0375 23.5137 43.3522V50H26.4906V43.3522C26.4906 34.0375 34.0419 26.4863 43.3566 26.4863H50V23.5094H43.3522C34.0375 23.5094 26.4862 15.9581 26.4862 6.64339V0H23.5094V6.64775C23.5094 15.9625 15.9581 23.5138 6.64339 23.5138H-1.11014e-06V23.5094Z" fill="#2F2F2F"/>
</svg>
