<svg width="24" height="24" viewBox="0 0 24 24" fill="none" xmlns="http://www.w3.org/2000/svg">
<path d="M23.8204 11.2389C23.7253 10.9936 23.5826 10.7695 23.4007 10.5795L13.4089 0.587699C13.2226 0.401376 13.0014 0.253576 12.758 0.152739C12.5145 0.051901 12.2536 0 11.9901 0C11.458 0 10.9476 0.211402 10.5713 0.587699C10.385 0.774023 10.2372 0.995221 10.1363 1.23866C10.0355 1.48211 9.98359 1.74303 9.98359 2.00653C9.98359 2.53869 10.195 3.04906 10.5713 3.42536L17.1659 9.99994H1.99835C1.46836 9.99994 0.960068 10.2105 0.585304 10.5852C0.210541 10.96 0 11.4683 0 11.9983C0 12.5283 0.210541 13.0366 0.585304 13.4113C0.960068 13.7861 1.46836 13.9966 1.99835 13.9966H17.1659L10.5713 20.5712C10.384 20.757 10.2353 20.978 10.1339 21.2215C10.0324 21.4651 9.98018 21.7263 9.98018 21.9901C9.98018 22.2539 10.0324 22.5151 10.1339 22.7586C10.2353 23.0021 10.384 23.2231 10.5713 23.4089C10.7571 23.5962 10.9781 23.7449 11.2216 23.8463C11.4651 23.9478 11.7263 24 11.9901 24C12.2539 24 12.5151 23.9478 12.7586 23.8463C13.0022 23.7449 13.2232 23.5962 13.4089 23.4089L23.4007 13.4171C23.5826 13.2271 23.7253 13.003 23.8204 12.7577C24.0202 12.2711 24.0202 11.7254 23.8204 11.2389Z" fill="#2F2F2F"/>
</svg>
