<svg width="31" height="31" viewBox="0 0 31 31" fill="none" xmlns="http://www.w3.org/2000/svg">
<path d="M20.925 15.6195C20.8773 15.4968 20.8059 15.3848 20.7149 15.2897L15.7128 10.2938C15.6195 10.2007 15.5088 10.1268 15.3869 10.0764C15.265 10.026 15.1344 10 15.0025 10C14.7361 10 14.4806 10.1057 14.2922 10.2938C14.1989 10.387 14.1249 10.4976 14.0744 10.6193C14.024 10.7411 13.998 10.8715 13.998 11.0033C13.998 11.2693 14.1038 11.5245 14.2922 11.7127L17.5936 15H10.0004C9.73509 15 9.48063 15.1052 9.29302 15.2926C9.1054 15.48 9 15.7341 9 15.9991C9 16.2641 9.1054 16.5183 9.29302 16.7057C9.48063 16.8931 9.73509 16.9983 10.0004 16.9983H17.5936L14.2922 20.2856C14.1984 20.3785 14.124 20.489 14.0732 20.6108C14.0224 20.7325 13.9963 20.8631 13.9963 20.995C13.9963 21.1269 14.0224 21.2575 14.0732 21.3793C14.124 21.501 14.1984 21.6116 14.2922 21.7044C14.3852 21.7981 14.4958 21.8724 14.6178 21.9232C14.7397 21.9739 14.8704 22 15.0025 22C15.1346 22 15.2653 21.9739 15.3872 21.9232C15.5091 21.8724 15.6198 21.7981 15.7128 21.7044L20.7149 16.7086C20.8059 16.6135 20.8773 16.5015 20.925 16.3788C21.025 16.1356 21.025 15.8627 20.925 15.6195Z" fill="#2F2F2F"/>
<rect x="0.5" y="0.5" width="30" height="30" rx="15" stroke="#B6B6B6"/>
</svg>
